<svg width="85" height="85" viewBox="0 0 85 85" fill="none" xmlns="http://www.w3.org/2000/svg">
<g clip-path="url(#clip0_1_336)">
<circle cx="42.5" cy="42.5" r="42.5" fill="#100E21"/>
<path fill-rule="evenodd" clip-rule="evenodd" d="M42.7697 15.4585C40.1998 15.4348 37.6643 15.7765 35.2328 16.4554C33.6109 16.9077 32.0238 17.5132 30.4934 18.2707C29.3683 18.8275 28.2899 19.4584 27.2641 20.1569L27.2589 20.1492C25.3096 21.4806 23.5603 23.0484 22.0429 24.8039C19.7675 27.4296 17.9974 30.4937 16.8623 33.848L16.6734 34.4068C16.6427 34.4975 16.6197 34.5899 16.6042 34.6832C15.8701 37.1105 15.4748 39.6499 15.4482 42.2313L15.4423 42.8211C15.4415 42.9048 15.4466 42.988 15.4575 43.0701C15.5663 48.2701 17.174 53.3714 20.1474 57.7352L20.4797 58.2225C20.7436 58.6095 21.1503 58.8756 21.6105 58.9626C22.071 59.0499 22.547 58.9504 22.9342 58.6866C23.3214 58.4228 23.588 58.0163 23.6751 57.5559C23.7624 57.0959 23.6633 56.6202 23.3994 56.2332L23.0671 55.7458C20.4482 51.905 19.028 47.3739 18.9861 42.7254C18.9441 38.0769 20.2822 33.5198 22.8312 29.6304C25.1461 26.0983 28.3652 23.2609 32.1432 21.4069C32.6576 21.155 33.1823 20.9214 33.7163 20.7068C38.0315 18.9726 42.7649 18.5561 47.3179 19.5101C51.7496 20.4386 55.8166 22.6247 59.0327 25.8024C60.8724 27.6217 62.4089 29.7416 63.5691 32.0844C65.6328 36.2508 66.4137 40.9348 65.8135 45.544C65.3293 49.2625 63.9635 52.7976 61.8463 55.8621C60.2102 58.2284 58.1451 60.2869 55.7429 61.9236C55.7241 61.9364 55.7056 61.9495 55.6875 61.963C53.5367 63.4192 51.1478 64.517 48.6124 65.1993C44.1213 66.4078 39.3719 66.2585 34.965 64.7698C34.5211 64.6199 34.0358 64.6524 33.6159 64.86C33.196 65.0675 32.8759 65.4332 32.7259 65.8768C32.5759 66.3205 32.6085 66.8053 32.8163 67.2253C33.0242 67.6449 33.3904 67.9647 33.8343 68.1146C36.5244 69.0234 39.3138 69.4947 42.1011 69.5356C42.1439 69.5391 42.187 69.5412 42.2303 69.5416C49.4049 69.6158 56.3137 66.8392 61.4377 61.8227C66.5616 56.8059 69.48 49.96 69.5515 42.7911C69.5568 42.2608 69.5465 41.732 69.5208 41.2053C69.2845 36.2598 67.691 31.4313 64.856 27.2735C61.5227 22.3848 56.6983 18.754 51.1526 16.8854L51.1559 16.8753C48.4269 15.9569 45.5963 15.4878 42.7697 15.461L42.7697 15.4585Z" fill="url(#paint0_linear_1_336)"/>
<path d="M43.5775 58.9068C47.0028 58.9068 50.3511 57.9176 53.1988 56.0641C56.0464 54.2107 58.2659 51.5763 59.5757 48.4944C60.8852 45.4125 61.2269 42.0215 60.5574 38.7505C59.8875 35.4794 58.2368 32.4754 55.8132 30.1182C53.3897 27.7611 50.3027 26.157 46.9427 25.5087C43.5828 24.8604 40.1008 25.1971 36.9375 26.4763C33.7741 27.7554 31.0715 29.9195 29.1714 32.6947C27.2714 35.47 26.2594 38.7316 26.2635 42.067V63.3099C26.2635 63.7341 26.4365 64.1408 26.7445 64.441C27.0525 64.7409 27.4702 64.9095 27.9058 64.9095C28.3413 64.9095 28.7591 64.7409 29.067 64.441C29.375 64.1408 29.5481 63.7341 29.5481 63.3099L29.5481 51.9103C31.1507 54.0749 33.2582 55.8379 35.6973 57.0543C38.1363 58.2705 40.8372 58.9056 43.5775 58.9068ZM43.5775 28.3896C46.3516 28.3896 49.0634 29.1904 51.3702 30.6909C53.677 32.1913 55.4752 34.324 56.5376 36.8194C57.5996 39.3147 57.8787 42.0607 57.3386 44.7104C56.7986 47.36 55.4642 49.7943 53.5036 51.7055C51.5432 53.6167 49.045 54.9191 46.3246 55.448C43.6042 55.9769 40.7839 55.7087 38.22 54.6771C35.6562 53.6456 33.464 51.897 31.9204 49.6526C30.3769 47.408 29.5513 44.7683 29.5481 42.067C29.547 38.442 31.0242 34.9649 33.655 32.4001C36.2858 29.8353 39.8548 28.3928 43.5775 28.3896Z" fill="url(#paint1_linear_1_336)"/>
</g>
<defs>
<linearGradient id="paint0_linear_1_336" x1="69.543" y1="15.8858" x2="24.6147" y2="76.0523" gradientUnits="userSpaceOnUse">
<stop offset="0.2" stop-color="#00D0C9"/>
<stop offset="0.5" stop-color="#4682B4"/>
<stop offset="0.85" stop-color="#A07ECE"/>
</linearGradient>
<linearGradient id="paint1_linear_1_336" x1="60.7143" y1="25.2975" x2="27.0742" y2="65.4032" gradientUnits="userSpaceOnUse">
<stop offset="0.2" stop-color="#00D0C9"/>
<stop offset="0.5" stop-color="#4682B4"/>
<stop offset="0.85" stop-color="#A07ECE"/>
</linearGradient>
<clipPath id="clip0_1_336">
<rect width="85" height="85" fill="white"/>
</clipPath>
</defs>
</svg>
